<mxfile host="app.diagrams.net" modified="2022-10-26T18:00:26.811Z" agent="5.0 (Windows NT 10.0; Win64; x64) AppleWebKit/537.36 (KHTML, like Gecko) Chrome/106.0.0.0 Safari/537.36" etag="eqq7VagytXdIcbk3iyU_" version="20.5.1" type="github" pages="3">
  <diagram id="2F7PlmNA8KwAkaLONM8t" name="Page-1">
    <mxGraphModel dx="1038" dy="5260" grid="0" gridSize="10" guides="1" tooltips="1" connect="1" arrows="1" fold="1" page="1" pageScale="1" pageWidth="3300" pageHeight="4681" background="#DAD2D8" math="0" shadow="1">
      <root>
        <mxCell id="0" />
        <mxCell id="1" parent="0" />
        <mxCell id="W3dbQqCWbhaAqqRiF6k4-5" value="&lt;p style=&quot;line-height: 1.3;&quot;&gt;&lt;/p&gt;&lt;div style=&quot;font-size: 11px;&quot;&gt;&lt;span style=&quot;background-color: initial;&quot;&gt;&lt;font style=&quot;font-size: 11px; line-height: 0.5;&quot;&gt;Pacbot Notification System for Unused Identities&lt;/font&gt;&lt;/span&gt;&lt;/div&gt;&lt;div style=&quot;font-size: 11px;&quot;&gt;&lt;font style=&quot;font-size: 11px;&quot;&gt;&lt;br&gt;&lt;/font&gt;&lt;/div&gt;&lt;div style=&quot;font-size: 11px;&quot;&gt;&lt;span style=&quot;background-color: initial;&quot;&gt;&lt;font style=&quot;font-size: 11px;&quot;&gt;for&lt;/font&gt;&lt;/span&gt;&lt;/div&gt;&lt;div style=&quot;font-size: 11px;&quot;&gt;&lt;font style=&quot;font-size: 11px;&quot;&gt;&lt;br&gt;&lt;/font&gt;&lt;/div&gt;&lt;div style=&quot;font-size: 11px;&quot;&gt;&lt;span style=&quot;background-color: initial;&quot;&gt;&lt;font style=&quot;font-size: 11px;&quot;&gt;auto remediation&lt;/font&gt;&lt;/span&gt;&lt;/div&gt;&lt;div style=&quot;font-size: 11px;&quot;&gt;&lt;br&gt;&lt;/div&gt;&lt;p&gt;&lt;/p&gt;" style="text;html=1;align=center;verticalAlign=middle;resizable=0;points=[];autosize=1;strokeColor=none;fillColor=none;fontStyle=1" parent="1" vertex="1">
          <mxGeometry x="302" y="-55" width="280" height="120" as="geometry" />
        </mxCell>
        <mxCell id="R-KmBz6XwgTwp_nhuJev-1" value="Start" style="ellipse;whiteSpace=wrap;html=1;fillColor=#FAE5C7;strokeColor=#0F8B8D;fontColor=#143642;rounded=1;" vertex="1" parent="1">
          <mxGeometry x="390" y="65" width="120" height="50" as="geometry" />
        </mxCell>
        <mxCell id="dmY6eLyhcPaqUCEm_zDu-1" value="&lt;span style=&quot;color: rgb(0, 0, 0);&quot;&gt;Pacbot System Identified the Unused Identity&lt;/span&gt;&lt;br style=&quot;color: rgb(0, 0, 0);&quot;&gt;&lt;span style=&quot;color: rgb(0, 0, 0);&quot;&gt;&amp;nbsp;and&amp;nbsp; sending email to the Owner/Manager&lt;/span&gt;&lt;br style=&quot;color: rgb(0, 0, 0);&quot;&gt;&lt;span style=&quot;color: rgb(0, 0, 0);&quot;&gt;Before Sending the Email below condition will check the No of days the Reminder has been sent.&amp;nbsp;&lt;/span&gt;&lt;br style=&quot;color: rgb(0, 0, 0);&quot;&gt;&lt;span style=&quot;color: rgb(0, 0, 0);&quot;&gt;If User Doesn&#39;t Respond with in 10 Days, The Resource will be deactivated on 11 day&lt;/span&gt;&lt;br style=&quot;color: rgb(0, 0, 0);&quot;&gt;&lt;span style=&quot;color: rgb(0, 0, 0);&quot;&gt;Every 3 days the severity level increases and go to Higher Level Management&lt;/span&gt;" style="rounded=0;whiteSpace=wrap;html=1;fillColor=#FAE5C7;strokeColor=#0F8B8D;fontColor=#143642;" vertex="1" parent="1">
          <mxGeometry x="257" y="164" width="391" height="156" as="geometry" />
        </mxCell>
        <mxCell id="9-DCRsT159qGD98qSrp3-1" value="" style="endArrow=classic;html=1;rounded=1;strokeColor=#A8201A;fontColor=#143642;fillColor=#FAE5C7;exitX=0.5;exitY=1;exitDx=0;exitDy=0;" edge="1" parent="1" source="R-KmBz6XwgTwp_nhuJev-1">
          <mxGeometry width="50" height="50" relative="1" as="geometry">
            <mxPoint x="400" y="110" as="sourcePoint" />
            <mxPoint x="449" y="164" as="targetPoint" />
          </mxGeometry>
        </mxCell>
        <mxCell id="jwTIWn02udrRTznz_PSJ-1" value="&lt;span style=&quot;color: rgb(0, 0, 0);&quot;&gt;Is Email Reminder&amp;nbsp;&lt;/span&gt;&lt;br style=&quot;color: rgb(0, 0, 0);&quot;&gt;&lt;span style=&quot;color: rgb(0, 0, 0);&quot;&gt;about&lt;/span&gt;&lt;br style=&quot;color: rgb(0, 0, 0);&quot;&gt;&lt;span style=&quot;color: rgb(0, 0, 0);&quot;&gt;&quot;unused identity violation&quot;&lt;/span&gt;&lt;br style=&quot;color: rgb(0, 0, 0);&quot;&gt;&lt;span style=&quot;color: rgb(0, 0, 0);&quot;&gt;count&amp;nbsp;&lt;/span&gt;&lt;br style=&quot;color: rgb(0, 0, 0);&quot;&gt;&lt;span style=&quot;color: rgb(0, 0, 0);&quot;&gt;exceed 10&lt;/span&gt;" style="rhombus;whiteSpace=wrap;html=1;fillColor=#FAE5C7;strokeColor=#0F8B8D;fontColor=#143642;rounded=1;" vertex="1" parent="1">
          <mxGeometry x="357.5" y="361" width="185" height="186" as="geometry" />
        </mxCell>
        <mxCell id="jwTIWn02udrRTznz_PSJ-2" value="" style="endArrow=classic;html=1;rounded=1;fontSize=11;fontColor=#FF6666;strokeColor=#A8201A;entryX=0.5;entryY=0;entryDx=0;entryDy=0;" edge="1" parent="1" target="jwTIWn02udrRTznz_PSJ-1">
          <mxGeometry width="50" height="50" relative="1" as="geometry">
            <mxPoint x="450" y="323" as="sourcePoint" />
            <mxPoint x="554" y="335" as="targetPoint" />
          </mxGeometry>
        </mxCell>
        <mxCell id="QlsAtQ3_KcV__r5to2Hw-1" value="&lt;span style=&quot;color: rgb(0, 0, 0);&quot;&gt;Schedule Identity for Deactivation&lt;/span&gt;" style="rounded=0;whiteSpace=wrap;html=1;strokeColor=#0F8B8D;fontColor=#143642;fillColor=#FAE5C7;" vertex="1" parent="1">
          <mxGeometry x="751" y="424" width="123" height="60" as="geometry" />
        </mxCell>
        <mxCell id="QlsAtQ3_KcV__r5to2Hw-2" value="" style="endArrow=classic;html=1;rounded=1;strokeColor=#A8201A;fontSize=11;fontColor=#FF6666;exitX=1;exitY=0.5;exitDx=0;exitDy=0;" edge="1" parent="1" source="jwTIWn02udrRTznz_PSJ-1">
          <mxGeometry width="50" height="50" relative="1" as="geometry">
            <mxPoint x="606" y="523" as="sourcePoint" />
            <mxPoint x="749" y="458" as="targetPoint" />
          </mxGeometry>
        </mxCell>
        <mxCell id="QlsAtQ3_KcV__r5to2Hw-3" value="&lt;font color=&quot;#1a1a1a&quot;&gt;&lt;b&gt;Yes&lt;/b&gt;&lt;/font&gt;" style="text;html=1;strokeColor=none;fillColor=none;align=center;verticalAlign=middle;whiteSpace=wrap;rounded=0;fontSize=11;fontColor=#FF6666;" vertex="1" parent="1">
          <mxGeometry x="580" y="424" width="60" height="30" as="geometry" />
        </mxCell>
        <mxCell id="QlsAtQ3_KcV__r5to2Hw-4" value="End" style="ellipse;whiteSpace=wrap;html=1;fillColor=#FAE5C7;strokeColor=#0F8B8D;fontColor=#143642;rounded=1;" vertex="1" parent="1">
          <mxGeometry x="998" y="429" width="120" height="50" as="geometry" />
        </mxCell>
        <mxCell id="QlsAtQ3_KcV__r5to2Hw-5" value="" style="endArrow=classic;html=1;rounded=1;strokeColor=#A8201A;fontSize=11;fontColor=#1A1A1A;entryX=0;entryY=0.5;entryDx=0;entryDy=0;" edge="1" parent="1" target="QlsAtQ3_KcV__r5to2Hw-4">
          <mxGeometry width="50" height="50" relative="1" as="geometry">
            <mxPoint x="876" y="456" as="sourcePoint" />
            <mxPoint x="947" y="418" as="targetPoint" />
          </mxGeometry>
        </mxCell>
        <mxCell id="QlsAtQ3_KcV__r5to2Hw-8" value="" style="endArrow=classic;html=1;rounded=1;strokeColor=#A8201A;fontSize=11;fontColor=#1A1A1A;" edge="1" parent="1">
          <mxGeometry width="50" height="50" relative="1" as="geometry">
            <mxPoint x="697" y="336" as="sourcePoint" />
            <mxPoint x="449" y="339" as="targetPoint" />
          </mxGeometry>
        </mxCell>
        <mxCell id="QlsAtQ3_KcV__r5to2Hw-9" value="&lt;span style=&quot;color: rgb(0, 0, 0);&quot;&gt;Send an Email Reminder&amp;nbsp;&lt;/span&gt;" style="rounded=0;whiteSpace=wrap;html=1;strokeColor=#0F8B8D;fontColor=#143642;fillColor=#FAE5C7;" vertex="1" parent="1">
          <mxGeometry x="388.5" y="600" width="123" height="60" as="geometry" />
        </mxCell>
        <mxCell id="QlsAtQ3_KcV__r5to2Hw-10" value="" style="endArrow=classic;html=1;rounded=1;strokeColor=#A8201A;fontSize=11;fontColor=#1A1A1A;entryX=0.5;entryY=0;entryDx=0;entryDy=0;exitX=0.5;exitY=1;exitDx=0;exitDy=0;" edge="1" parent="1" source="jwTIWn02udrRTznz_PSJ-1" target="QlsAtQ3_KcV__r5to2Hw-9">
          <mxGeometry width="50" height="50" relative="1" as="geometry">
            <mxPoint x="469" y="557" as="sourcePoint" />
            <mxPoint x="519" y="507" as="targetPoint" />
          </mxGeometry>
        </mxCell>
        <mxCell id="QlsAtQ3_KcV__r5to2Hw-11" value="&lt;b&gt;No&lt;/b&gt;" style="text;html=1;strokeColor=none;fillColor=none;align=center;verticalAlign=middle;whiteSpace=wrap;rounded=0;fontSize=11;fontColor=#1A1A1A;" vertex="1" parent="1">
          <mxGeometry x="454" y="555" width="60" height="30" as="geometry" />
        </mxCell>
        <mxCell id="QTlcEq7IekAfTr4NuBot-1" value="&lt;span style=&quot;color: rgb(0, 0, 0);&quot;&gt;is Owner Approved&lt;/span&gt;" style="rhombus;whiteSpace=wrap;html=1;fillColor=#FAE5C7;strokeColor=#0F8B8D;fontColor=#143642;rounded=1;" vertex="1" parent="1">
          <mxGeometry x="375" y="695" width="150" height="129" as="geometry" />
        </mxCell>
        <mxCell id="QTlcEq7IekAfTr4NuBot-2" value="" style="endArrow=classic;html=1;rounded=1;strokeColor=#A8201A;fontSize=11;fontColor=#1A1A1A;exitX=0.5;exitY=1;exitDx=0;exitDy=0;entryX=0.5;entryY=0;entryDx=0;entryDy=0;" edge="1" parent="1" source="QlsAtQ3_KcV__r5to2Hw-9" target="QTlcEq7IekAfTr4NuBot-1">
          <mxGeometry width="50" height="50" relative="1" as="geometry">
            <mxPoint x="478.75" y="708" as="sourcePoint" />
            <mxPoint x="528.75" y="658" as="targetPoint" />
          </mxGeometry>
        </mxCell>
        <mxCell id="QTlcEq7IekAfTr4NuBot-3" value="" style="endArrow=classic;html=1;rounded=1;strokeColor=#A8201A;fontSize=11;fontColor=#1A1A1A;exitX=0.5;exitY=1;exitDx=0;exitDy=0;" edge="1" parent="1" source="QTlcEq7IekAfTr4NuBot-1">
          <mxGeometry width="50" height="50" relative="1" as="geometry">
            <mxPoint x="469" y="837" as="sourcePoint" />
            <mxPoint x="450" y="859" as="targetPoint" />
          </mxGeometry>
        </mxCell>
        <mxCell id="QTlcEq7IekAfTr4NuBot-4" value="" style="endArrow=none;html=1;rounded=1;strokeColor=#A8201A;fontSize=11;fontColor=#1A1A1A;entryX=0;entryY=0.5;entryDx=0;entryDy=0;" edge="1" parent="1" target="QTlcEq7IekAfTr4NuBot-1">
          <mxGeometry width="50" height="50" relative="1" as="geometry">
            <mxPoint x="216" y="760" as="sourcePoint" />
            <mxPoint x="331" y="748" as="targetPoint" />
          </mxGeometry>
        </mxCell>
        <mxCell id="QTlcEq7IekAfTr4NuBot-5" value="&lt;span style=&quot;color: rgb(0, 0, 0);&quot;&gt;&amp;nbsp;Notify the Owner&lt;/span&gt;" style="rounded=0;whiteSpace=wrap;html=1;strokeColor=#0F8B8D;fontColor=#143642;fillColor=#FAE5C7;" vertex="1" parent="1">
          <mxGeometry x="388.5" y="860" width="123" height="60" as="geometry" />
        </mxCell>
        <mxCell id="QTlcEq7IekAfTr4NuBot-6" value="&lt;span style=&quot;color: rgb(0, 0, 0);&quot;&gt;is Identity Approved&lt;/span&gt;&lt;br style=&quot;color: rgb(0, 0, 0);&quot;&gt;&lt;span style=&quot;color: rgb(0, 0, 0);&quot;&gt;for Deletion&lt;/span&gt;" style="rhombus;whiteSpace=wrap;html=1;fillColor=#FAE5C7;strokeColor=#0F8B8D;fontColor=#143642;rounded=1;" vertex="1" parent="1">
          <mxGeometry x="373.75" y="958" width="150" height="129" as="geometry" />
        </mxCell>
        <mxCell id="QTlcEq7IekAfTr4NuBot-7" value="" style="endArrow=classic;html=1;rounded=1;strokeColor=#A8201A;fontSize=11;fontColor=#1A1A1A;" edge="1" parent="1">
          <mxGeometry width="50" height="50" relative="1" as="geometry">
            <mxPoint x="449" y="924" as="sourcePoint" />
            <mxPoint x="449" y="964" as="targetPoint" />
          </mxGeometry>
        </mxCell>
        <mxCell id="QTlcEq7IekAfTr4NuBot-9" value="&lt;span style=&quot;color: rgb(0, 0, 0);&quot;&gt;No Action, Next Reminder will continue till reaches max Count&lt;/span&gt;" style="rounded=0;whiteSpace=wrap;html=1;strokeColor=#0F8B8D;fontColor=#143642;fillColor=#FAE5C7;" vertex="1" parent="1">
          <mxGeometry x="648" y="974" width="144" height="78" as="geometry" />
        </mxCell>
        <mxCell id="QTlcEq7IekAfTr4NuBot-10" value="No" style="text;html=1;strokeColor=none;fillColor=none;align=center;verticalAlign=middle;whiteSpace=wrap;rounded=0;fontSize=11;fontColor=#1A1A1A;fontStyle=1" vertex="1" parent="1">
          <mxGeometry x="551" y="994" width="60" height="30" as="geometry" />
        </mxCell>
        <mxCell id="QTlcEq7IekAfTr4NuBot-11" value="" style="endArrow=classic;html=1;rounded=1;strokeColor=#A8201A;fontSize=11;fontColor=#1A1A1A;exitX=1;exitY=0.5;exitDx=0;exitDy=0;" edge="1" parent="1" source="QTlcEq7IekAfTr4NuBot-6">
          <mxGeometry width="50" height="50" relative="1" as="geometry">
            <mxPoint x="651" y="1047" as="sourcePoint" />
            <mxPoint x="648" y="1020" as="targetPoint" />
          </mxGeometry>
        </mxCell>
        <mxCell id="QTlcEq7IekAfTr4NuBot-12" value="&lt;span style=&quot;color: rgb(0, 0, 0);&quot;&gt;Notify Manager&lt;/span&gt;" style="rounded=0;whiteSpace=wrap;html=1;strokeColor=#0F8B8D;fontColor=#143642;fillColor=#FAE5C7;" vertex="1" parent="1">
          <mxGeometry x="387.25" y="1143" width="123" height="60" as="geometry" />
        </mxCell>
        <mxCell id="QTlcEq7IekAfTr4NuBot-13" value="" style="endArrow=classic;html=1;rounded=1;strokeColor=#A8201A;fontSize=11;fontColor=#1A1A1A;exitX=0.5;exitY=1;exitDx=0;exitDy=0;" edge="1" parent="1" source="QTlcEq7IekAfTr4NuBot-6">
          <mxGeometry width="50" height="50" relative="1" as="geometry">
            <mxPoint x="464" y="1098" as="sourcePoint" />
            <mxPoint x="449" y="1142" as="targetPoint" />
          </mxGeometry>
        </mxCell>
        <mxCell id="QTlcEq7IekAfTr4NuBot-16" value="Yes" style="text;html=1;strokeColor=none;fillColor=none;align=center;verticalAlign=middle;whiteSpace=wrap;rounded=0;fontSize=11;fontColor=#1A1A1A;fontStyle=1" vertex="1" parent="1">
          <mxGeometry x="454" y="1096" width="60" height="30" as="geometry" />
        </mxCell>
        <mxCell id="QTlcEq7IekAfTr4NuBot-17" value="&lt;span style=&quot;color: rgb(0, 0, 0);&quot;&gt;is Approved for Delete Identities&lt;/span&gt;" style="rhombus;whiteSpace=wrap;html=1;fillColor=#FAE5C7;strokeColor=#0F8B8D;fontColor=#143642;rounded=1;" vertex="1" parent="1">
          <mxGeometry x="373.75" y="1280" width="150" height="129" as="geometry" />
        </mxCell>
        <mxCell id="QTlcEq7IekAfTr4NuBot-18" value="" style="endArrow=classic;html=1;rounded=1;strokeColor=#A8201A;fontSize=11;fontColor=#1A1A1A;entryX=0.5;entryY=0;entryDx=0;entryDy=0;" edge="1" parent="1" target="QTlcEq7IekAfTr4NuBot-17">
          <mxGeometry width="50" height="50" relative="1" as="geometry">
            <mxPoint x="447" y="1207" as="sourcePoint" />
            <mxPoint x="599" y="1225" as="targetPoint" />
          </mxGeometry>
        </mxCell>
        <mxCell id="QTlcEq7IekAfTr4NuBot-19" value="" style="endArrow=none;html=1;rounded=1;strokeColor=#A8201A;fontSize=11;fontColor=#1A1A1A;exitX=1;exitY=0.5;exitDx=0;exitDy=0;" edge="1" parent="1" source="QTlcEq7IekAfTr4NuBot-17">
          <mxGeometry width="50" height="50" relative="1" as="geometry">
            <mxPoint x="556" y="1353" as="sourcePoint" />
            <mxPoint x="718" y="1342" as="targetPoint" />
          </mxGeometry>
        </mxCell>
        <mxCell id="QTlcEq7IekAfTr4NuBot-20" value="No" style="text;html=1;strokeColor=none;fillColor=none;align=center;verticalAlign=middle;whiteSpace=wrap;rounded=0;fontSize=11;fontColor=#1A1A1A;fontStyle=1" vertex="1" parent="1">
          <mxGeometry x="582" y="1313" width="60" height="30" as="geometry" />
        </mxCell>
        <mxCell id="QTlcEq7IekAfTr4NuBot-21" value="&lt;span style=&quot;color: rgb(0, 0, 0);&quot;&gt;Schedule to Delete The Identity, Remove the Identity from Schedule Job and pacbot violation will be removed over sub-sequent scan&lt;/span&gt;" style="rounded=0;whiteSpace=wrap;html=1;strokeColor=#0F8B8D;fontColor=#143642;fillColor=#FAE5C7;" vertex="1" parent="1">
          <mxGeometry x="357.5" y="1468" width="185" height="106" as="geometry" />
        </mxCell>
        <mxCell id="QTlcEq7IekAfTr4NuBot-22" value="" style="endArrow=classic;html=1;rounded=1;strokeColor=#A8201A;fontSize=11;fontColor=#1A1A1A;exitX=0.5;exitY=1;exitDx=0;exitDy=0;entryX=0.5;entryY=0;entryDx=0;entryDy=0;" edge="1" parent="1" source="QTlcEq7IekAfTr4NuBot-17" target="QTlcEq7IekAfTr4NuBot-21">
          <mxGeometry width="50" height="50" relative="1" as="geometry">
            <mxPoint x="492.5" y="1431" as="sourcePoint" />
            <mxPoint x="542.5" y="1381" as="targetPoint" />
          </mxGeometry>
        </mxCell>
        <mxCell id="QTlcEq7IekAfTr4NuBot-23" value="Yes" style="text;html=1;strokeColor=none;fillColor=none;align=center;verticalAlign=middle;whiteSpace=wrap;rounded=0;fontSize=11;fontColor=#1A1A1A;fontStyle=1" vertex="1" parent="1">
          <mxGeometry x="451.5" y="1419" width="60" height="30" as="geometry" />
        </mxCell>
        <mxCell id="QTlcEq7IekAfTr4NuBot-24" value="End" style="ellipse;whiteSpace=wrap;html=1;fillColor=#FAE5C7;strokeColor=#0F8B8D;fontColor=#143642;rounded=1;" vertex="1" parent="1">
          <mxGeometry x="388.75" y="1653" width="120" height="50" as="geometry" />
        </mxCell>
        <mxCell id="QTlcEq7IekAfTr4NuBot-25" value="" style="endArrow=classic;html=1;rounded=1;strokeColor=#A8201A;fontSize=11;fontColor=#1A1A1A;entryX=0.5;entryY=0;entryDx=0;entryDy=0;" edge="1" parent="1" target="QTlcEq7IekAfTr4NuBot-24">
          <mxGeometry width="50" height="50" relative="1" as="geometry">
            <mxPoint x="449" y="1577" as="sourcePoint" />
            <mxPoint x="452" y="1652" as="targetPoint" />
          </mxGeometry>
        </mxCell>
        <mxCell id="QTlcEq7IekAfTr4NuBot-26" value="" style="endArrow=classic;html=1;rounded=1;strokeColor=#A8201A;fontSize=11;fontColor=#1A1A1A;" edge="1" parent="1">
          <mxGeometry width="50" height="50" relative="1" as="geometry">
            <mxPoint x="719.5" y="1343" as="sourcePoint" />
            <mxPoint x="719.5" y="1052" as="targetPoint" />
          </mxGeometry>
        </mxCell>
        <mxCell id="QTlcEq7IekAfTr4NuBot-28" value="" style="endArrow=none;html=1;rounded=1;strokeColor=#A8201A;fontSize=11;fontColor=#1A1A1A;" edge="1" parent="1">
          <mxGeometry width="50" height="50" relative="1" as="geometry">
            <mxPoint x="702" y="968" as="sourcePoint" />
            <mxPoint x="698" y="336" as="targetPoint" />
          </mxGeometry>
        </mxCell>
        <mxCell id="QTlcEq7IekAfTr4NuBot-32" value="" style="endArrow=classic;html=1;rounded=1;strokeColor=#A8201A;fontSize=11;fontColor=#1A1A1A;entryX=0;entryY=0.5;entryDx=0;entryDy=0;" edge="1" parent="1" target="QTlcEq7IekAfTr4NuBot-12">
          <mxGeometry width="50" height="50" relative="1" as="geometry">
            <mxPoint x="220" y="1176" as="sourcePoint" />
            <mxPoint x="337" y="1155" as="targetPoint" />
          </mxGeometry>
        </mxCell>
        <mxCell id="QTlcEq7IekAfTr4NuBot-33" value="" style="endArrow=none;html=1;rounded=1;strokeColor=#A8201A;fontSize=11;fontColor=#1A1A1A;" edge="1" parent="1">
          <mxGeometry width="50" height="50" relative="1" as="geometry">
            <mxPoint x="216" y="1177" as="sourcePoint" />
            <mxPoint x="216" y="760" as="targetPoint" />
          </mxGeometry>
        </mxCell>
        <mxCell id="QTlcEq7IekAfTr4NuBot-34" value="No" style="text;html=1;strokeColor=none;fillColor=none;align=center;verticalAlign=middle;whiteSpace=wrap;rounded=0;fontSize=11;fontColor=#1A1A1A;fontStyle=1" vertex="1" parent="1">
          <mxGeometry x="456" y="824" width="60" height="30" as="geometry" />
        </mxCell>
        <mxCell id="QTlcEq7IekAfTr4NuBot-35" value="Yes" style="text;html=1;strokeColor=none;fillColor=none;align=center;verticalAlign=middle;whiteSpace=wrap;rounded=0;fontSize=11;fontColor=#1A1A1A;fontStyle=1" vertex="1" parent="1">
          <mxGeometry x="286" y="730" width="60" height="30" as="geometry" />
        </mxCell>
      </root>
    </mxGraphModel>
  </diagram>
  <diagram id="825jTVbD74pwmTZDXjiH" name="Page-2">
    <mxGraphModel dx="1038" dy="579" grid="1" gridSize="10" guides="1" tooltips="1" connect="1" arrows="1" fold="1" page="1" pageScale="1" pageWidth="850" pageHeight="1100" background="#DAD2D8" math="0" shadow="0">
      <root>
        <mxCell id="0" />
        <mxCell id="1" parent="0" />
        <mxCell id="1SHm4hPK-HVv81CH3Bw4-1" value="&lt;span&gt;Pacbot Notification System&lt;br&gt;to remove unused IAM Identities-User and Role&lt;/span&gt;" style="text;html=1;align=center;verticalAlign=middle;resizable=0;points=[];autosize=1;strokeColor=none;fillColor=none;fontColor=#143642;rounded=1;" parent="1" vertex="1">
          <mxGeometry x="260" y="5" width="280" height="40" as="geometry" />
        </mxCell>
        <mxCell id="a-1qxkQPkkysgRtW_MTr-1" value="Start" style="ellipse;whiteSpace=wrap;html=1;fillColor=#FAE5C7;strokeColor=#0F8B8D;fontColor=#143642;rounded=1;" parent="1" vertex="1">
          <mxGeometry x="340" y="60" width="120" height="50" as="geometry" />
        </mxCell>
        <mxCell id="7wdDZhYkI96YHoR5jbr_-1" value="Identify the unused accounts and roles and notify the owner" style="rounded=0;whiteSpace=wrap;html=1;fillColor=#FAE5C7;strokeColor=#0F8B8D;fontColor=#143642;" parent="1" vertex="1">
          <mxGeometry x="340" y="150" width="120" height="60" as="geometry" />
        </mxCell>
        <mxCell id="zMxUUMqIKeQ8fVVgzI87-1" value="&amp;nbsp;Is no of Email Reminders exceed max count" style="rhombus;whiteSpace=wrap;html=1;fillColor=#FAE5C7;strokeColor=#0F8B8D;fontColor=#143642;rounded=1;" parent="1" vertex="1">
          <mxGeometry x="325" y="240" width="150" height="160" as="geometry" />
        </mxCell>
        <mxCell id="ic0EezxAscp7aKQCOM13-2" value="Send the Email Reminder" style="rounded=0;whiteSpace=wrap;html=1;strokeColor=#0F8B8D;fontColor=#143642;fillColor=#FAE5C7;" parent="1" vertex="1">
          <mxGeometry x="340" y="440" width="120" height="60" as="geometry" />
        </mxCell>
        <mxCell id="94RmXtZy_hZAy45wh5ry-2" value="&lt;span style=&quot;color: rgb(0, 0, 0);&quot;&gt;is Approved for Deletion by Owner&lt;/span&gt;" style="rhombus;whiteSpace=wrap;html=1;fillColor=#FAE5C7;strokeColor=#0F8B8D;fontColor=#143642;rounded=1;" parent="1" vertex="1">
          <mxGeometry x="315" y="540" width="170" height="160" as="geometry" />
        </mxCell>
        <mxCell id="DrW6kKM9lPLiyRGYpazw-1" value="Notify the Manager" style="rounded=0;whiteSpace=wrap;html=1;strokeColor=#0F8B8D;fontColor=#143642;fillColor=#FAE5C7;" parent="1" vertex="1">
          <mxGeometry x="325" y="740" width="150" height="60" as="geometry" />
        </mxCell>
        <mxCell id="DK-w31bb5x8y7gX2XaGW-3" value="&lt;span style=&quot;color: rgb(0, 0, 0);&quot;&gt;is Approved for Deletion by Manager&lt;/span&gt;" style="rhombus;whiteSpace=wrap;html=1;fillColor=#FAE5C7;strokeColor=#0F8B8D;fontColor=#143642;rounded=1;" parent="1" vertex="1">
          <mxGeometry x="315" y="840" width="170" height="160" as="geometry" />
        </mxCell>
        <mxCell id="vRnMGKTtuLfXFsGvwRMY-1" value="Remove the identity from scheduled JOB" style="rounded=0;whiteSpace=wrap;html=1;strokeColor=#0F8B8D;fontColor=#143642;fillColor=#FAE5C7;" parent="1" vertex="1">
          <mxGeometry x="335" y="1110" width="120" height="60" as="geometry" />
        </mxCell>
        <mxCell id="vRnMGKTtuLfXFsGvwRMY-2" value="Mark the identity for Deletion" style="rounded=0;whiteSpace=wrap;html=1;strokeColor=#0F8B8D;fontColor=#143642;fillColor=#FAE5C7;" parent="1" vertex="1">
          <mxGeometry x="335" y="1220" width="120" height="60" as="geometry" />
        </mxCell>
        <mxCell id="NFCe-IUsvdAm8rzY-eAQ-1" value="End" style="ellipse;whiteSpace=wrap;html=1;rounded=0;strokeColor=#0F8B8D;fontColor=#143642;fillColor=#FAE5C7;" parent="1" vertex="1">
          <mxGeometry x="335" y="1320" width="120" height="80" as="geometry" />
        </mxCell>
        <mxCell id="08QDFl62JGAp28Ak1xsh-1" value="" style="endArrow=classic;html=1;rounded=1;strokeColor=#A8201A;fontColor=#143642;fillColor=#FAE5C7;" parent="1" edge="1">
          <mxGeometry width="50" height="50" relative="1" as="geometry">
            <mxPoint x="680" y="1050" as="sourcePoint" />
            <mxPoint x="400" y="1050" as="targetPoint" />
          </mxGeometry>
        </mxCell>
        <mxCell id="08QDFl62JGAp28Ak1xsh-2" value="" style="endArrow=none;html=1;rounded=1;strokeColor=#A8201A;fontColor=#143642;fillColor=#FAE5C7;" parent="1" edge="1">
          <mxGeometry width="50" height="50" relative="1" as="geometry">
            <mxPoint x="680" y="1050" as="sourcePoint" />
            <mxPoint x="680" y="320" as="targetPoint" />
          </mxGeometry>
        </mxCell>
        <mxCell id="08QDFl62JGAp28Ak1xsh-3" value="" style="endArrow=none;html=1;rounded=1;strokeColor=#A8201A;fontColor=#143642;fillColor=#FAE5C7;exitX=1;exitY=0.5;exitDx=0;exitDy=0;" parent="1" source="zMxUUMqIKeQ8fVVgzI87-1" edge="1">
          <mxGeometry width="50" height="50" relative="1" as="geometry">
            <mxPoint x="650" y="380" as="sourcePoint" />
            <mxPoint x="680" y="320" as="targetPoint" />
          </mxGeometry>
        </mxCell>
        <mxCell id="08QDFl62JGAp28Ak1xsh-4" value="Yes" style="text;html=1;strokeColor=none;fillColor=none;align=center;verticalAlign=middle;whiteSpace=wrap;rounded=0;fontColor=#143642;" parent="1" vertex="1">
          <mxGeometry x="520" y="290" width="60" height="30" as="geometry" />
        </mxCell>
        <mxCell id="08QDFl62JGAp28Ak1xsh-7" value="" style="endArrow=classic;html=1;rounded=1;strokeColor=#A8201A;fontColor=#143642;fillColor=#FAE5C7;exitX=0.5;exitY=1;exitDx=0;exitDy=0;entryX=0.5;entryY=0;entryDx=0;entryDy=0;" parent="1" source="vRnMGKTtuLfXFsGvwRMY-1" target="vRnMGKTtuLfXFsGvwRMY-2" edge="1">
          <mxGeometry width="50" height="50" relative="1" as="geometry">
            <mxPoint x="385" y="1210" as="sourcePoint" />
            <mxPoint x="410" y="1210" as="targetPoint" />
          </mxGeometry>
        </mxCell>
        <mxCell id="08QDFl62JGAp28Ak1xsh-8" value="" style="endArrow=classic;html=1;rounded=1;strokeColor=#A8201A;fontColor=#143642;fillColor=#FAE5C7;exitX=0.5;exitY=1;exitDx=0;exitDy=0;" parent="1" source="DK-w31bb5x8y7gX2XaGW-3" edge="1">
          <mxGeometry width="50" height="50" relative="1" as="geometry">
            <mxPoint x="360" y="1050" as="sourcePoint" />
            <mxPoint x="400" y="1100" as="targetPoint" />
          </mxGeometry>
        </mxCell>
        <mxCell id="08QDFl62JGAp28Ak1xsh-9" value="" style="endArrow=classic;html=1;rounded=1;strokeColor=#A8201A;fontColor=#143642;fillColor=#FAE5C7;exitX=0.5;exitY=1;exitDx=0;exitDy=0;entryX=0.5;entryY=0;entryDx=0;entryDy=0;" parent="1" source="vRnMGKTtuLfXFsGvwRMY-2" target="NFCe-IUsvdAm8rzY-eAQ-1" edge="1">
          <mxGeometry width="50" height="50" relative="1" as="geometry">
            <mxPoint x="405" y="1330" as="sourcePoint" />
            <mxPoint x="395" y="1310" as="targetPoint" />
          </mxGeometry>
        </mxCell>
        <mxCell id="08QDFl62JGAp28Ak1xsh-10" value="" style="endArrow=classic;html=1;rounded=1;strokeColor=#A8201A;fontColor=#143642;fillColor=#FAE5C7;entryX=0.5;entryY=0;entryDx=0;entryDy=0;exitX=0.5;exitY=1;exitDx=0;exitDy=0;" parent="1" source="DrW6kKM9lPLiyRGYpazw-1" target="DK-w31bb5x8y7gX2XaGW-3" edge="1">
          <mxGeometry width="50" height="50" relative="1" as="geometry">
            <mxPoint x="385" y="830" as="sourcePoint" />
            <mxPoint x="435" y="780" as="targetPoint" />
          </mxGeometry>
        </mxCell>
        <mxCell id="08QDFl62JGAp28Ak1xsh-11" value="" style="endArrow=classic;html=1;rounded=1;strokeColor=#A8201A;fontColor=#143642;fillColor=#FAE5C7;entryX=0.5;entryY=0;entryDx=0;entryDy=0;" parent="1" target="DrW6kKM9lPLiyRGYpazw-1" edge="1">
          <mxGeometry width="50" height="50" relative="1" as="geometry">
            <mxPoint x="400" y="700" as="sourcePoint" />
            <mxPoint x="420" y="730" as="targetPoint" />
          </mxGeometry>
        </mxCell>
        <mxCell id="08QDFl62JGAp28Ak1xsh-14" value="" style="endArrow=classic;html=1;rounded=1;strokeColor=#A8201A;fontColor=#143642;fillColor=#FAE5C7;exitX=0.5;exitY=1;exitDx=0;exitDy=0;entryX=0.5;entryY=0;entryDx=0;entryDy=0;" parent="1" source="zMxUUMqIKeQ8fVVgzI87-1" target="ic0EezxAscp7aKQCOM13-2" edge="1">
          <mxGeometry width="50" height="50" relative="1" as="geometry">
            <mxPoint x="425" y="420" as="sourcePoint" />
            <mxPoint x="475" y="370" as="targetPoint" />
          </mxGeometry>
        </mxCell>
        <mxCell id="08QDFl62JGAp28Ak1xsh-15" value="" style="endArrow=classic;html=1;rounded=1;strokeColor=#A8201A;fontColor=#143642;fillColor=#FAE5C7;entryX=0.5;entryY=0;entryDx=0;entryDy=0;" parent="1" target="94RmXtZy_hZAy45wh5ry-2" edge="1">
          <mxGeometry width="50" height="50" relative="1" as="geometry">
            <mxPoint x="400" y="500" as="sourcePoint" />
            <mxPoint x="410" y="530" as="targetPoint" />
          </mxGeometry>
        </mxCell>
        <mxCell id="08QDFl62JGAp28Ak1xsh-16" value="" style="endArrow=classic;html=1;rounded=1;strokeColor=#A8201A;fontColor=#143642;fillColor=#FAE5C7;exitX=0.5;exitY=1;exitDx=0;exitDy=0;entryX=0.5;entryY=0;entryDx=0;entryDy=0;" parent="1" source="7wdDZhYkI96YHoR5jbr_-1" target="zMxUUMqIKeQ8fVVgzI87-1" edge="1">
          <mxGeometry width="50" height="50" relative="1" as="geometry">
            <mxPoint x="530" y="240" as="sourcePoint" />
            <mxPoint x="580" y="190" as="targetPoint" />
          </mxGeometry>
        </mxCell>
        <mxCell id="08QDFl62JGAp28Ak1xsh-17" value="" style="endArrow=classic;html=1;rounded=1;strokeColor=#A8201A;fontColor=#143642;fillColor=#FAE5C7;exitX=0.5;exitY=1;exitDx=0;exitDy=0;entryX=0.5;entryY=0;entryDx=0;entryDy=0;" parent="1" source="a-1qxkQPkkysgRtW_MTr-1" target="7wdDZhYkI96YHoR5jbr_-1" edge="1">
          <mxGeometry width="50" height="50" relative="1" as="geometry">
            <mxPoint x="460" y="120" as="sourcePoint" />
            <mxPoint x="510" y="70" as="targetPoint" />
          </mxGeometry>
        </mxCell>
        <mxCell id="08QDFl62JGAp28Ak1xsh-18" value="No" style="text;html=1;strokeColor=none;fillColor=none;align=center;verticalAlign=middle;whiteSpace=wrap;rounded=0;fontColor=#143642;" parent="1" vertex="1">
          <mxGeometry x="400" y="400" width="60" height="30" as="geometry" />
        </mxCell>
        <mxCell id="08QDFl62JGAp28Ak1xsh-21" value="Yes" style="text;html=1;strokeColor=none;fillColor=none;align=center;verticalAlign=middle;whiteSpace=wrap;rounded=0;fontColor=#143642;" parent="1" vertex="1">
          <mxGeometry x="400" y="700" width="60" height="30" as="geometry" />
        </mxCell>
        <mxCell id="08QDFl62JGAp28Ak1xsh-22" value="" style="endArrow=classic;html=1;rounded=1;strokeColor=#A8201A;fontColor=#143642;fillColor=#FAE5C7;" parent="1" edge="1">
          <mxGeometry width="50" height="50" relative="1" as="geometry">
            <mxPoint x="200" y="480" as="sourcePoint" />
            <mxPoint x="340" y="480" as="targetPoint" />
          </mxGeometry>
        </mxCell>
        <mxCell id="08QDFl62JGAp28Ak1xsh-25" value="" style="endArrow=none;html=1;rounded=1;strokeColor=#A8201A;fontColor=#143642;fillColor=#FAE5C7;" parent="1" edge="1">
          <mxGeometry width="50" height="50" relative="1" as="geometry">
            <mxPoint x="200" y="620" as="sourcePoint" />
            <mxPoint x="200" y="480" as="targetPoint" />
          </mxGeometry>
        </mxCell>
        <mxCell id="08QDFl62JGAp28Ak1xsh-26" value="" style="endArrow=none;html=1;rounded=1;strokeColor=#A8201A;fontColor=#143642;fillColor=#FAE5C7;entryX=0;entryY=0.5;entryDx=0;entryDy=0;" parent="1" target="94RmXtZy_hZAy45wh5ry-2" edge="1">
          <mxGeometry width="50" height="50" relative="1" as="geometry">
            <mxPoint x="200" y="620" as="sourcePoint" />
            <mxPoint x="260" y="600" as="targetPoint" />
          </mxGeometry>
        </mxCell>
        <mxCell id="08QDFl62JGAp28Ak1xsh-27" value="No" style="text;html=1;strokeColor=none;fillColor=none;align=center;verticalAlign=middle;whiteSpace=wrap;rounded=0;fontColor=#143642;" parent="1" vertex="1">
          <mxGeometry x="230" y="590" width="60" height="30" as="geometry" />
        </mxCell>
        <mxCell id="08QDFl62JGAp28Ak1xsh-28" value="Yes" style="text;html=1;strokeColor=none;fillColor=none;align=center;verticalAlign=middle;whiteSpace=wrap;rounded=0;fontColor=#143642;" parent="1" vertex="1">
          <mxGeometry x="340" y="1050" width="60" height="30" as="geometry" />
        </mxCell>
        <mxCell id="08QDFl62JGAp28Ak1xsh-30" value="" style="endArrow=none;html=1;rounded=1;strokeColor=#A8201A;fontColor=#143642;fillColor=#FAE5C7;entryX=0;entryY=0.5;entryDx=0;entryDy=0;" parent="1" target="DK-w31bb5x8y7gX2XaGW-3" edge="1">
          <mxGeometry width="50" height="50" relative="1" as="geometry">
            <mxPoint x="220" y="920" as="sourcePoint" />
            <mxPoint x="290" y="910" as="targetPoint" />
          </mxGeometry>
        </mxCell>
        <mxCell id="08QDFl62JGAp28Ak1xsh-31" value="No" style="text;html=1;strokeColor=none;fillColor=none;align=center;verticalAlign=middle;whiteSpace=wrap;rounded=0;fontColor=#143642;" parent="1" vertex="1">
          <mxGeometry x="240" y="890" width="60" height="30" as="geometry" />
        </mxCell>
        <mxCell id="08QDFl62JGAp28Ak1xsh-32" value="" style="endArrow=classic;html=1;rounded=1;strokeColor=#A8201A;fontColor=#143642;fillColor=#FAE5C7;entryX=0;entryY=0.5;entryDx=0;entryDy=0;" parent="1" target="DrW6kKM9lPLiyRGYpazw-1" edge="1">
          <mxGeometry width="50" height="50" relative="1" as="geometry">
            <mxPoint x="220" y="770" as="sourcePoint" />
            <mxPoint x="280" y="750" as="targetPoint" />
          </mxGeometry>
        </mxCell>
        <mxCell id="08QDFl62JGAp28Ak1xsh-33" value="" style="endArrow=none;html=1;rounded=1;strokeColor=#A8201A;fontColor=#143642;fillColor=#FAE5C7;" parent="1" edge="1">
          <mxGeometry width="50" height="50" relative="1" as="geometry">
            <mxPoint x="220" y="920" as="sourcePoint" />
            <mxPoint x="220" y="770" as="targetPoint" />
          </mxGeometry>
        </mxCell>
      </root>
    </mxGraphModel>
  </diagram>
  <diagram id="rpFX0Ebcfq0f5800gTLF" name="Page-3">
    <mxGraphModel dx="1038" dy="579" grid="1" gridSize="10" guides="1" tooltips="1" connect="1" arrows="1" fold="1" page="1" pageScale="1" pageWidth="850" pageHeight="1100" math="0" shadow="0">
      <root>
        <mxCell id="0" />
        <mxCell id="1" parent="0" />
      </root>
    </mxGraphModel>
  </diagram>
</mxfile>
